<svg width="27" height="21" viewBox="0 0 27 21" fill="none" xmlns="http://www.w3.org/2000/svg">
<path d="M26.2741 11.2051L17.5278 19.9866C17.2468 20.2676 16.8955 20.4081 16.5443 20.4081C16.193 20.4081 15.8418 20.2676 15.5608 19.9866C14.9987 19.4246 14.9987 18.5465 15.5608 17.9844L21.9185 11.6267H1.40503C0.632265 11.6267 0 10.9944 0 10.2216C0 9.44886 0.632265 8.81659 1.40503 8.81659H21.9185L15.5256 2.42368C14.9636 1.86167 14.9636 0.983524 15.5256 0.42151C16.0876 -0.140503 16.9658 -0.140503 17.5278 0.42151L26.2741 9.20297C26.8362 9.76499 26.8362 10.6783 26.2741 11.2051Z" fill="#4CC574"/>
</svg>
