<svg width="189" height="56" viewBox="0 0 189 56" fill="none" xmlns="http://www.w3.org/2000/svg">
<g clip-path="url(#clip0_87_4255)">
<path fill-rule="evenodd" clip-rule="evenodd" d="M13.9175 0.0284929L16.3128 0.00390625L41.2355 0.0135293C41.6134 0.0173793 41.8484 0.0221054 42.0834 0.0284929C43.319 0.0613053 44.5653 0.133669 45.7873 0.350756C47.0278 0.570731 48.1814 0.930618 49.3076 1.49797C50.4144 2.05464 51.4284 2.78211 52.3068 3.65151C53.1852 4.51881 53.9211 5.52033 54.4842 6.6154C55.059 7.72979 55.4222 8.87027 55.6447 10.0966C55.8643 11.3045 55.9374 12.5366 55.9706 13.7581C55.9863 14.3186 55.9931 14.8792 55.996 15.4407L55.9994 16.439L55.9999 38.5611C55.9999 39.2269 55.9999 39.8926 55.996 40.5593C55.9931 41.1198 55.9863 41.6804 55.9706 42.241C55.9374 43.4615 55.8643 44.6945 55.6447 45.9015C55.4222 47.1278 55.059 48.2693 54.4842 49.3837C53.9211 50.4778 53.1852 51.4793 52.3068 52.3476C51.4284 53.216 50.4144 53.9444 49.3076 54.5011C48.1814 55.0684 47.0278 55.4283 45.7873 55.6483C44.5653 55.8654 43.319 55.9378 42.0834 55.9706L38.361 55.9995L14.7646 55.9855C14.3867 55.9817 14.1521 55.977 13.9175 55.9706C12.6819 55.9378 11.4355 55.8654 10.2136 55.6483C8.9732 55.4283 7.8196 55.0684 6.6933 54.5011C5.58556 53.9444 4.57248 53.216 3.69407 52.3476C2.81575 51.4793 2.07978 50.4778 1.51567 49.3837C0.941849 48.2693 0.578723 47.1278 0.355248 45.9015C0.135623 44.6945 0.0634368 43.4615 0.0302743 42.241C0.0146119 41.6804 0.00778747 41.1198 0.00489997 40.5593L0.000614165 39.5598L0 17.438C0 16.7722 -2.11876e-08 16.1055 0.00489997 15.4407C0.00778747 14.8792 0.0146119 14.3186 0.0302743 13.7581C0.0634368 12.5366 0.135623 11.3045 0.355248 10.0966C0.578723 8.87027 0.941849 7.72979 1.51567 6.6154C2.07978 5.52033 2.81575 4.51881 3.69407 3.65151C4.57248 2.78211 5.58556 2.05464 6.6933 1.49797C7.8196 0.930618 8.9732 0.570731 10.2136 0.350756C11.4355 0.133669 12.6819 0.0613053 13.9175 0.0284929Z" fill="#2B2B2C"/>
<mask id="mask0_87_4255" style="mask-type:alpha" maskUnits="userSpaceOnUse" x="0" y="0" width="56" height="56">
<path fill-rule="evenodd" clip-rule="evenodd" d="M13.9175 0.0284929L16.3128 0.00390625L41.2355 0.0135293C41.6134 0.0173793 41.8484 0.0221054 42.0834 0.0284929C43.319 0.0613053 44.5653 0.133669 45.7873 0.350756C47.0278 0.570731 48.1814 0.930618 49.3076 1.49797C50.4144 2.05464 51.4284 2.78211 52.3068 3.65151C53.1852 4.51881 53.9211 5.52033 54.4842 6.6154C55.059 7.72979 55.4222 8.87027 55.6447 10.0966C55.8643 11.3045 55.9374 12.5366 55.9706 13.7581C55.9863 14.3186 55.9931 14.8792 55.996 15.4407L55.9994 16.439L55.9999 38.5611C55.9999 39.2269 55.9999 39.8926 55.996 40.5593C55.9931 41.1198 55.9863 41.6804 55.9706 42.241C55.9374 43.4615 55.8643 44.6945 55.6447 45.9015C55.4222 47.1278 55.059 48.2693 54.4842 49.3837C53.9211 50.4778 53.1852 51.4793 52.3068 52.3476C51.4284 53.216 50.4144 53.9444 49.3076 54.5011C48.1814 55.0684 47.0278 55.4283 45.7873 55.6483C44.5653 55.8654 43.319 55.9378 42.0834 55.9706L38.361 55.9995L14.7646 55.9855C14.3867 55.9817 14.1521 55.977 13.9175 55.9706C12.6819 55.9378 11.4355 55.8654 10.2136 55.6483C8.9732 55.4283 7.8196 55.0684 6.6933 54.5011C5.58556 53.9444 4.57248 53.216 3.69407 52.3476C2.81575 51.4793 2.07978 50.4778 1.51567 49.3837C0.941849 48.2693 0.578723 47.1278 0.355248 45.9015C0.135623 44.6945 0.0634368 43.4615 0.0302743 42.241C0.0146119 41.6804 0.00778747 41.1198 0.00489997 40.5593L0.000614165 39.5598L0 17.438C0 16.7722 -2.11876e-08 16.1055 0.00489997 15.4407C0.00778747 14.8792 0.0146119 14.3186 0.0302743 13.7581C0.0634368 12.5366 0.135623 11.3045 0.355248 10.0966C0.578723 8.87027 0.941849 7.72979 1.51567 6.6154C2.07978 5.52033 2.81575 4.51881 3.69407 3.65151C4.57248 2.78211 5.58556 2.05464 6.6933 1.49797C7.8196 0.930618 8.9732 0.570731 10.2136 0.350756C11.4355 0.133669 12.6819 0.0613053 13.9175 0.0284929Z" fill="white"/>
</mask>
<g mask="url(#mask0_87_4255)">
<path d="M55.9999 0H0V55.9999H55.9999V0Z" fill="#19AA1E"/>
<path fill-rule="evenodd" clip-rule="evenodd" d="M0 0H55.9999V18.375L0 9.62498V0Z" fill="#FFB919"/>
<path fill-rule="evenodd" clip-rule="evenodd" d="M0 49.875L55.9999 41.125V56H0V49.875Z" fill="#82D714"/>
<path fill-rule="evenodd" clip-rule="evenodd" d="M0 8.51758L19.5472 11.5718C21.9805 10.0315 24.8753 9.18704 28 9.18704C32.3277 9.18704 36.2147 10.8071 39.045 13.6519C39.4022 14.0109 39.739 14.3863 40.0549 14.7761L55.9999 17.2675V19.4815L41.674 17.2432C42.7383 19.2856 43.3124 21.5612 43.3124 23.8835C43.3124 26.8837 42.6413 29.8752 41.2542 32.8784L41.2119 32.9694L40.6228 34.2319H39.2296C36.3529 34.2319 34.4446 35.0924 33.197 36.6175C32.2174 37.8149 31.6509 39.4291 31.4603 41.1904L31.4545 41.2454L31.4266 41.5268L31.4148 41.6492L31.3922 41.8887C31.3193 42.6751 31.2704 43.3419 31.2457 43.8854L55.9999 40.0174V42.2314L0 50.9814V48.7674L24.7821 44.8952L24.7712 44.3981L24.768 44.2579L24.7659 44.1861L24.7621 44.0752C24.7397 43.4725 24.6845 42.6998 24.596 41.7635L24.5791 41.586L24.5488 41.2785C24.3709 39.5079 23.8129 37.8733 22.8359 36.6581C21.6014 35.1226 19.7107 34.2495 16.857 34.2321L16.7703 34.2319H15.3771L14.788 32.9694C13.3722 29.9355 12.6875 26.9141 12.6875 23.8835C12.6875 20.0725 14.2336 16.3872 16.9549 13.6519C17.0335 13.573 17.1129 13.4949 17.193 13.4179L0 10.7315V8.51758Z" fill="white"/>
<path fill-rule="evenodd" clip-rule="evenodd" d="M28 11.375C35.8181 11.375 41.125 17.3926 41.125 23.884C41.125 26.4901 40.5564 29.2019 39.2296 32.0448C31.5366 32.0448 29.6377 37.5542 29.2787 41.0206L29.2557 41.2516C29.1341 42.4887 29.0636 43.4814 29.0445 44.2298L26.9607 44.5553L26.9602 44.4879C26.9523 43.7035 26.8782 42.6031 26.7379 41.1867L26.7317 41.125C26.4 37.666 24.541 32.0448 16.7703 32.0448C15.4436 29.2019 14.875 26.4901 14.875 23.884C14.875 17.3926 20.1819 11.375 28 11.375Z" fill="#0073FA"/>
</g>
<path fill-rule="evenodd" clip-rule="evenodd" d="M83.6003 13C75.8003 13 69.9503 17.75 70.0003 26H77.2503C77.1503 22.7 79.2503 19.5 83.6003 19.5C86.9003 19.5 89.0003 21.7 89.0003 24.5C89.0003 27.4 86.7003 29 83.0003 30.8C78.1503 33.15 75.2503 34.25 70.0003 36V45.5H97.0003V39H79.8003C82.3063 37.9553 84.7463 36.8081 86.9503 35.75C92.8003 32.95 96.2503 29.8 96.2503 24.15C96.2503 17.35 91.1503 13 83.6003 13ZM108 20H122V13.5H101V45.5H108V20ZM133 13.5H126V45.5H132.95L146 25.05V45.5H153V13.5H146L133 33.95V13.5ZM188.15 33.5H180.9C179.8 37.05 176.45 39.5 172.5 39.5C166.75 39.5 163 34.55 163 29.5C163 24.45 166.65 19.5 172.7 19.5C176.7 19.5 179.8 21.95 180.9 25.5H188.15C187.1 18.35 181.45 13 172.5 13C162.6 13 156 19.95 156 29.5C156 39.05 162.6 46 172.5 46C181.45 46 187.1 40.75 188.15 33.5Z" fill="#2B2B2C"/>
</g>
<defs>
<clipPath id="clip0_87_4255">
<rect width="189" height="56" fill="white"/>
</clipPath>
</defs>
</svg>
