<svg width="224" height="56" viewBox="0 0 224 56" fill="none" xmlns="http://www.w3.org/2000/svg">
<g clip-path="url(#clip0_87_4242)">
<path d="M0 0H56V56H0V0Z" fill="#2B2B2C"/>
<path d="M22.3 22.2996C19.2 25.3996 19.2 30.4996 22.3 33.5996C25.4 36.6996 30.5 36.6996 33.6 33.5996C36.7 30.4996 36.7 25.3996 33.6 22.2996C30.5 19.1996 25.5 19.1996 22.3 22.2996Z" fill="white"/>
<path d="M41.0001 15.5997V27.8997C41.0001 35.1997 35.2001 40.9997 27.9001 40.9997H15.6001C22.7001 47.7997 33.8001 47.6997 40.7001 40.6997C47.6001 33.7997 47.7001 22.6997 41.0001 15.5997ZM15.0001 28.0997C15.0001 20.7997 20.8001 14.9997 28.1001 14.9997H40.4001C33.3001 8.19972 22.2001 8.29972 15.3001 15.2997C8.40005 22.2997 8.30005 33.3997 15.0001 40.3997V28.0997Z" fill="white"/>
<path d="M56 0H224V56H56V0Z" fill="#2E6BE5"/>
<path d="M84.3 29.3C80.7 28.3 78 25.4 78 21.2C78 16 82.3 13 86.9 13H108.8V19.3H96V24.2H105.9V30.3H96V39H89.2V19.1H86.8C85.7 19.1 84.4 19.8 84.4 21.2C84.4 22.3 85.1 23 86 23.4L84.3 29.3ZM112 39V13H119V39H112ZM131.1 19.4C136.3 19.4 140 21.9 140 27.1V39H134.1V37C133 39 130.5 39.6 128.1 39.6C123.9 39.6 121.5 36.6 121.5 33.2C121.5 30.3 123.8 26.8 129.5 26.8H133.6V26.5C133.6 24.3 132.8 23.5 131 23.5C129.4 23.5 128.4 24.3 128.3 25.8H122.3C122.6 22.1 125.6 19.4 131.1 19.4ZM133.7 31.7V30.6H130.8C129.1 30.6 127.8 31.5 127.8 32.8C127.8 34.2 128.8 34.9 130.5 34.9C132.5 34.9 133.7 33.5 133.7 31.7ZM160.4 22.8C161.7 20.4 163.6 19.5 166.1 19.5C170.9 19.5 173 22.5 173 27.3V39H166.5V28.6C166.5 26.4 166.1 25.1 164.2 25.1C162.1 25.1 161.5 26.7 161.5 28.8V39H155V28.6C155 26.4 154.5 25.1 152.5 25.1C150.4 25.1 149.7 26.9 149.7 29.1V39.1H143V20H149.3V22.8C150.6 20.1 152.9 19.4 155 19.4C157.5 19.4 159.3 20.4 160.4 22.8ZM182.4 22.6C183.7 20.2 186.1 19.4 188.4 19.4C193.4 19.4 196.4 23.6 196.4 29.5C196.4 35.5 193.3 39.6 188.4 39.6C186.1 39.6 183.8 38.9 182.6 37V46H176V20H182.4V22.6ZM186 34.4C188.8 34.4 189.9 32.1 189.9 29.5C189.9 26.9 188.9 24.7 186 24.7C183.3 24.7 182.1 26.9 182.1 29.5C182.2 32.1 183.3 34.4 186 34.4Z" fill="white"/>
</g>
<defs>
<clipPath id="clip0_87_4242">
<rect width="224" height="56" fill="white"/>
</clipPath>
</defs>
</svg>
