<svg width="26" height="26" viewBox="0 0 26 26" fill="none" xmlns="http://www.w3.org/2000/svg">
<path d="M21.2875 9.79333L16.0442 9.33833L13.9967 4.5175C13.6284 3.64 12.3717 3.64 12.0034 4.5175L9.95585 9.34917L4.72335 9.79333C3.77002 9.86917 3.38002 11.0608 4.10585 11.6892L8.08168 15.1342L6.89002 20.2475C6.67335 21.1792 7.68085 21.9158 8.50418 21.4175L13 18.7092L17.4958 21.4283C18.3192 21.9267 19.3267 21.19 19.11 20.2583L17.9184 15.1342L21.8942 11.6892C22.62 11.0608 22.2408 9.86917 21.2875 9.79333Z" fill="#55CD6C"/>
<path d="M16.0009 14.5165L19.5975 11.3965L15.1667 11.0121V17.9935L17.0842 19.1532L16.0009 14.5165Z" fill="white"/>
</svg>
