<svg width="211" height="56" viewBox="0 0 211 56" fill="none" xmlns="http://www.w3.org/2000/svg">
<g clip-path="url(#clip0_87_4268)">
<path d="M22.1888 0.352539C17.8019 0.354851 13.5141 1.65721 9.86695 4.09511C6.21983 6.533 3.37701 9.99708 1.69758 14.0498C0.0181471 18.1025 -0.422561 22.562 0.431123 26.865C1.28481 31.168 3.39458 35.1215 6.49397 38.2261C10.5126 42.2448 19.9699 48.0582 20.5295 54.165C20.6134 55.0772 21.2766 55.8242 22.1888 55.8242C23.101 55.8242 23.7666 55.0772 23.848 54.165C24.4076 48.0582 33.8575 42.2546 37.8737 38.2385C40.9767 35.1351 43.09 31.1814 43.9464 26.8772C44.8029 22.573 44.364 18.1115 42.6853 14.0567C41.0065 10.0019 38.1634 6.53576 34.5151 4.09651C30.8669 1.65725 26.5773 0.354367 22.1888 0.352539ZM22.1888 30.1322C21.1919 30.1322 20.2048 29.9359 19.2838 29.5544C18.3628 29.1729 17.526 28.6138 16.8211 27.9089C16.1162 27.204 15.5571 26.3671 15.1756 25.4462C14.7941 24.5252 14.5978 23.5381 14.5978 22.5412C14.5978 21.5444 14.7941 20.5573 15.1756 19.6363C15.5571 18.7153 16.1162 17.8785 16.8211 17.1736C17.526 16.4687 18.3628 15.9095 19.2838 15.5281C20.2048 15.1466 21.1919 14.9502 22.1888 14.9502C24.202 14.9502 26.1328 15.75 27.5564 17.1736C28.98 18.5972 29.7798 20.528 29.7798 22.5412C29.7798 24.5545 28.98 26.4853 27.5564 27.9089C26.1328 29.3325 24.202 30.1322 22.1888 30.1322Z" fill="#FF4433"/>
<path d="M153.271 20.4502C158.471 20.4502 162.094 24.7676 162.094 32.5674C162.094 40.4138 158.379 44.7324 152.993 44.7324C150.625 44.7323 148.582 43.6175 147.189 41.5283V51H141.665V20.9141H146.771L147.051 23.9316C148.536 21.657 150.672 20.4503 153.271 20.4502ZM87.1904 39.1816C88.8222 39.1817 90.1445 40.505 90.1445 42.1367C90.1443 43.7683 88.822 45.0908 87.1904 45.0908C85.5588 45.0908 84.2356 43.7683 84.2354 42.1367C84.2354 40.505 85.5587 39.1816 87.1904 39.1816ZM128.495 20.543C134.345 20.543 137.224 22.6786 137.224 28.3428V38.5566C137.224 40.4601 137.316 42.3641 137.502 44.2676H132.116C131.931 43.8034 131.745 43.0146 131.698 42.4111H131.466C130.398 43.5252 129.005 44.5927 125.756 44.5928C121.485 44.5928 118.606 41.9465 118.605 37.2109C118.605 32.4752 122.366 29.6895 130.816 29.6895H131.698V28.3896C131.698 25.8825 130.491 24.9531 127.845 24.9531C125.013 24.9531 121.763 26.1611 120.277 27.2754V22.6787C121.949 21.7037 124.827 20.543 128.495 20.543ZM78.1533 44.2676H72.5352V16.3643H70.0283C65.432 16.3643 63.0177 18.6856 63.0176 22.1211C63.0176 26.0211 64.6893 27.8319 68.125 30.1533L70.957 32.0566L62.7852 44.2676H56.7031L64.0391 33.3574C59.8141 30.3396 57.4463 27.4141 57.4463 22.4463C57.4463 16.225 61.7638 12.0001 69.9814 12H78.1533V44.2676ZM101.672 26.8574L112.118 12H117.689L106.918 27.2754L118.433 44.2676H111.886L101.672 29.1318V44.2676H96.0537V12H101.672V26.8574ZM181.514 25.2783H175.014V44.2676H169.488V25.2783H162.988V20.9141H181.514V25.2783ZM190.31 28.0645H193.281C199.038 28.0645 202.475 30.8039 202.475 36.0039C202.474 41.4822 198.62 44.2676 193.188 44.2676H184.785V20.9141H190.31V28.0645ZM210.042 44.2676H204.518V20.9141H210.042V44.2676ZM130.909 33.3574C126.174 33.3574 124.27 34.3321 124.27 37.0713C124.27 39.1606 125.431 40.5537 127.752 40.5537C129.702 40.5537 131.002 39.7177 131.698 38.6963V33.3574H130.909ZM151.879 24.8145C148.768 24.8146 147.189 27.1822 147.189 32.6143C147.189 37.9999 148.676 40.3682 151.601 40.3682C154.804 40.3681 156.383 37.9995 156.383 32.5674C156.383 27.182 154.897 24.8145 151.879 24.8145ZM190.31 39.9033H192.863C195.231 39.9033 196.764 38.8821 196.764 36.1895C196.764 33.4966 195.371 32.4287 193.003 32.4287H190.31V39.9033Z" fill="#2B2B2C"/>
</g>
<defs>
<clipPath id="clip0_87_4268">
<rect width="211" height="56" fill="white"/>
</clipPath>
</defs>
</svg>
