<svg width="31" height="31" viewBox="0 0 31 31" fill="none" xmlns="http://www.w3.org/2000/svg">
<path fill-rule="evenodd" clip-rule="evenodd" d="M14.208 5.16536C9.21443 5.16536 5.16634 9.21346 5.16634 14.207C5.16634 19.2006 9.21443 23.2487 14.208 23.2487C19.2016 23.2487 23.2497 19.2006 23.2497 14.207C23.2497 9.21346 19.2016 5.16536 14.208 5.16536ZM2.58301 14.207C2.58301 7.78672 7.7877 2.58203 14.208 2.58203C20.6283 2.58203 25.833 7.78672 25.833 14.207C25.833 20.6273 20.6283 25.832 14.208 25.832C7.7877 25.832 2.58301 20.6273 2.58301 14.207Z" fill="white"/>
<path fill-rule="evenodd" clip-rule="evenodd" d="M20.5932 20.5932C21.0976 20.0887 21.9154 20.0887 22.4199 20.5932L28.0386 26.2119C28.543 26.7163 28.543 27.5342 28.0386 28.0386C27.5342 28.543 26.7163 28.543 26.2119 28.0386L20.5932 22.4199C20.0887 21.9154 20.0887 21.0976 20.5932 20.5932Z" fill="white"/>
</svg>
