<svg width="16" height="16" viewBox="0 0 16 16" fill="none" xmlns="http://www.w3.org/2000/svg">
<path d="M8 1.33333C6.76232 1.33333 5.57534 1.825 4.70017 2.70017C3.825 3.57534 3.33333 4.76232 3.33333 6C3.33333 9.54 7.33333 14.2333 7.49333 14.4333L8 15.0267L8.50667 14.4333C8.66667 14.2333 12.6667 9.54 12.6667 6C12.6667 4.76232 12.175 3.57534 11.2998 2.70017C10.4247 1.825 9.23768 1.33333 8 1.33333ZM8 8C7.60444 8 7.21776 7.8827 6.88886 7.66294C6.55996 7.44318 6.30362 7.13082 6.15224 6.76537C6.00087 6.39991 5.96126 5.99778 6.03843 5.60982C6.1156 5.22186 6.30608 4.86549 6.58579 4.58579C6.86549 4.30608 7.22186 4.1156 7.60982 4.03843C7.99778 3.96126 8.39991 4.00087 8.76537 4.15224C9.13082 4.30362 9.44318 4.55996 9.66294 4.88886C9.8827 5.21776 10 5.60444 10 6C10 6.53043 9.78929 7.03914 9.41421 7.41421C9.03914 7.78929 8.53043 8 8 8Z" fill="#2B2B2C"/>
</svg>
