<svg width="16" height="16" viewBox="0 0 16 16" fill="none" xmlns="http://www.w3.org/2000/svg">
<g clip-path="url(#clip0_4303_4061)">
<path d="M3.32765 7.95869H3.96498C4.14513 8.65389 4.49216 9.29464 4.97598 9.82536C6.25732 11.2254 7.27232 11.9367 7.99398 11.9367C8.71565 11.9367 9.72732 11.2264 11.008 9.82569C11.4295 9.36493 11.7477 8.81942 11.9413 8.22569L12.5157 7.96202H12.649C12.772 7.96202 12.8899 7.91317 12.9768 7.82622C13.0638 7.73927 13.1127 7.62133 13.1127 7.49836V6.48736C13.1127 6.36439 13.0638 6.24645 12.9768 6.1595C12.8899 6.07254 12.772 6.02369 12.649 6.02369H12.5157L12.7053 5.48503C12.8374 5.036 12.9147 4.57263 12.9353 4.10503C12.9887 3.13836 12.5887 1.93836 11.5653 1.49836C11.0718 1.28944 10.5157 1.28464 10.0187 1.48503C10.0187 1.48503 9.53399 0.121692 6.92398 0.365025C5.66065 0.481692 4.52732 0.961692 3.79065 2.19503C3.22557 3.15248 3.0133 4.27749 3.19065 5.37503L3.32698 6.02369C3.20413 6.02387 3.08636 6.0728 2.99955 6.15973C2.91274 6.24667 2.86398 6.3645 2.86398 6.48736V7.49502C2.86398 7.618 2.91283 7.73593 2.99979 7.82289C3.08674 7.90984 3.20468 7.95869 3.32765 7.95869ZM10.6393 9.48636C9.49065 10.743 8.55098 11.435 7.99398 11.435C7.43698 11.435 6.49398 10.743 5.34532 9.48636C4.68296 8.76235 4.31615 7.8163 4.31732 6.83502V6.07936C5.83111 5.9689 7.31035 5.57305 8.67698 4.91269C9.06206 4.73339 9.43165 4.52256 9.78198 4.28236C9.66888 4.70595 9.40898 5.07559 9.04865 5.32536C9.00362 5.35301 8.96851 5.39422 8.94836 5.44307C8.92821 5.49192 8.92405 5.5459 8.93649 5.59726C8.94894 5.64862 8.97733 5.69471 9.01761 5.72893C9.05788 5.76314 9.10796 5.78371 9.16065 5.78769C10.0368 5.87367 10.9171 5.6708 11.6673 5.21003V6.83502C11.6668 7.18155 11.6208 7.52651 11.5303 7.86102L9.41065 8.83502C9.27485 8.71382 9.09934 8.64658 8.91732 8.64602C8.76862 8.64576 8.62319 8.68963 8.49943 8.77207C8.37568 8.85451 8.27917 8.97182 8.22213 9.10914C8.16509 9.24646 8.15008 9.39763 8.179 9.54348C8.20792 9.68934 8.27947 9.82334 8.38459 9.92851C8.48972 10.0337 8.62368 10.1053 8.76953 10.1343C8.91538 10.1633 9.06654 10.1483 9.20389 10.0913C9.34124 10.0344 9.45859 9.9379 9.54109 9.81419C9.62359 9.69047 9.66752 9.54506 9.66732 9.39636C9.66666 9.35452 9.66242 9.31281 9.65465 9.27169L11.2843 8.52369C11.1185 8.87493 10.9011 9.1994 10.6393 9.48636ZM5.46265 14.2287L5.61632 14.005L4.66932 13.8517C4.61301 13.8425 4.56153 13.8144 4.5234 13.7719C4.48527 13.7295 4.46278 13.6753 4.45965 13.6184L4.36732 11.639L1.41732 12.696L0.333984 15.6684H6.54898L5.48665 14.5417C5.4475 14.5001 5.42377 14.4464 5.4194 14.3894C5.41503 14.3325 5.4303 14.2758 5.46265 14.2287Z" fill="black"/>
<path d="M4.85938 11.4605L4.94971 13.3885L6.08537 13.5725C6.12707 13.5791 6.16642 13.5961 6.19974 13.622C6.23306 13.6479 6.25927 13.6818 6.27592 13.7206C6.29257 13.7594 6.29911 13.8018 6.29493 13.8438C6.29076 13.8858 6.276 13.9261 6.25204 13.9608L5.98971 14.3431L7.23638 15.6661H8.00071L5.77837 11.1328L4.85938 11.4605ZM9.74971 13.9605C9.72583 13.9257 9.71113 13.8855 9.707 13.8435C9.70287 13.8016 9.70943 13.7593 9.72607 13.7205C9.74271 13.6818 9.76889 13.6479 9.80216 13.622C9.83544 13.5961 9.87473 13.5791 9.91637 13.5725L11.0517 13.3885L11.1424 11.4605L10.223 11.1328L8.00071 15.6661H8.76504L10.0124 14.3431L9.74971 13.9605Z" fill="black"/>
<path d="M14.5828 12.6937L11.6328 11.6367L11.5398 13.6144C11.5367 13.6713 11.5142 13.7255 11.4761 13.768C11.438 13.8104 11.3865 13.8385 11.3302 13.8477L10.3835 14.0011L10.5372 14.2251C10.5694 14.2721 10.5846 14.3288 10.5801 14.3857C10.5757 14.4425 10.552 14.4962 10.5128 14.5377L9.45117 15.6661H15.6662L14.5828 12.6937Z" fill="black"/>
</g>
<defs>
<clipPath id="clip0_4303_4061">
<rect width="16" height="16" fill="white"/>
</clipPath>
</defs>
</svg>
