<svg width="16" height="18" viewBox="0 0 16 18" fill="none" xmlns="http://www.w3.org/2000/svg">
<path d="M13 6.3V4.5C13 1.98 10.8 0 8 0C5.2 0 3 1.98 3 4.5V6.3C1.3 6.3 0 7.47 0 9V15.3C0 16.83 1.3 18 3 18H13C14.7 18 16 16.83 16 15.3V9C16 7.47 14.7 6.3 13 6.3ZM5 4.5C5 2.97 6.3 1.8 8 1.8C9.7 1.8 11 2.97 11 4.5V6.3H5V4.5ZM9.1 12.15L9 12.24V13.5C9 14.04 8.6 14.4 8 14.4C7.4 14.4 7 14.04 7 13.5V12.24C6.4 11.7 6.3 10.89 6.9 10.35C7.5 9.81 8.4 9.72 9 10.26C9.6 10.71 9.7 11.61 9.1 12.15Z" fill="#2B2B2C"/>
</svg>
