<svg width="16" height="16" viewBox="0 0 16 16" fill="none" xmlns="http://www.w3.org/2000/svg">
<path d="M4.85756 12.0969L4.39319 12.5381L4.50944 13.1681C4.53131 13.2866 4.48319 13.4069 4.386 13.4775C4.33131 13.5172 4.26694 13.5372 4.20225 13.5372C4.15131 13.5372 4.10006 13.5247 4.05319 13.4994L3.49006 13.1941L2.92694 13.4994C2.821 13.5569 2.69163 13.5481 2.59413 13.4775C2.49694 13.4069 2.44881 13.2866 2.47069 13.1681L2.58694 12.5381L2.12256 12.0969C2.03538 12.0141 2.0035 11.8884 2.04069 11.7741C2.07788 11.6594 2.17756 11.5766 2.29694 11.5606L2.93194 11.4766L3.20819 10.8988C3.26006 10.7903 3.36975 10.7212 3.49006 10.7212C3.61038 10.7212 3.72006 10.7903 3.77194 10.8988L4.04819 11.4766L4.68319 11.5606C4.80256 11.5766 4.90225 11.6594 4.93944 11.7741C4.97663 11.8884 4.94475 12.0141 4.85756 12.0969ZM9.36663 14.0597L8.90225 14.5009L9.0185 15.1309C9.04038 15.2491 8.99225 15.3697 8.89506 15.4403C8.84038 15.48 8.776 15.5 8.71131 15.5C8.66006 15.5 8.60913 15.4875 8.56225 15.4622L7.99913 15.1569L7.436 15.4622C7.33006 15.5197 7.20069 15.5109 7.10319 15.4403C7.006 15.3697 6.95788 15.2491 6.97975 15.1309L7.096 14.5009L6.63163 14.0597C6.54444 13.9769 6.51256 13.8512 6.54975 13.7369C6.58694 13.6222 6.68663 13.5394 6.806 13.5234L7.441 13.4391L7.71725 12.8616C7.76913 12.7531 7.87881 12.6838 7.99913 12.6838C8.11944 12.6838 8.22913 12.7531 8.281 12.8616L8.55725 13.4391L9.19225 13.5234C9.31163 13.5394 9.41131 13.6222 9.4485 13.7369C9.48569 13.8512 9.45381 13.9769 9.36663 14.0597ZM13.8757 12.0969L13.4113 12.5381L13.5276 13.1681C13.5494 13.2866 13.5013 13.4069 13.4041 13.4775C13.3494 13.5172 13.2851 13.5372 13.2204 13.5372C13.1691 13.5372 13.1179 13.5247 13.0713 13.4994L12.5082 13.1941L11.9451 13.4994C11.8391 13.5569 11.7098 13.5481 11.6123 13.4775C11.5151 13.4069 11.4669 13.2866 11.4888 13.1681L11.6051 12.5381L11.1407 12.0969C11.0535 12.0141 11.0216 11.8884 11.0588 11.7741C11.096 11.6594 11.1957 11.5766 11.3151 11.5606L11.9501 11.4766L12.2263 10.8988C12.2782 10.7903 12.3879 10.7212 12.5082 10.7212C12.6285 10.7212 12.7382 10.7903 12.7901 10.8988L13.0663 11.4766L13.7013 11.5606C13.8207 11.5766 13.9204 11.6594 13.9576 11.7741C13.9948 11.8884 13.9629 12.0141 13.8757 12.0969ZM7.99913 0.5C5.031 0.5 2.61631 2.91469 2.61631 5.88281C2.61631 8.85094 5.031 11.2659 7.99913 11.2659C10.9673 11.2659 13.3819 8.85125 13.3819 5.88281C13.3819 2.91438 10.9673 0.5 7.99913 0.5ZM5.71069 7.28062C5.92506 7.15906 6.15725 7.07219 6.39975 7.02313L7.47569 8.74844C7.33694 8.7475 7.17475 8.73094 7.00444 8.68125C6.42319 8.5125 5.98881 8.04187 5.71069 7.28062ZM8.23538 6.35125H7.76288C7.03631 6.2375 6.4785 5.60719 6.4785 4.84906C6.4785 4.01062 7.16069 3.32844 7.99913 3.32844C8.83756 3.32844 9.51975 4.01062 9.51975 4.84906C9.51975 5.60719 8.96194 6.2375 8.23538 6.35125ZM7.99913 10.6409C7.71038 10.6409 7.42725 10.615 7.15256 10.5653C7.15256 9.81625 7.36256 9.4875 7.4635 9.37313C7.47163 9.37313 7.48006 9.37344 7.48788 9.37344C7.71506 9.37344 7.896 9.34219 7.99913 9.31906C8.10194 9.34219 8.28288 9.37344 8.51038 9.37344C8.51819 9.37344 8.52663 9.37313 8.53475 9.37313C8.63569 9.4875 8.84569 9.81625 8.84569 10.5653C8.571 10.615 8.28788 10.6409 7.99913 10.6409ZM8.99381 8.68125C8.8235 8.73094 8.66131 8.7475 8.52225 8.74844L9.5985 7.02313C9.841 7.07219 10.0732 7.15906 10.2876 7.28062C10.0094 8.04187 9.57506 8.5125 8.99381 8.68125ZM11.2044 7.19312C10.7363 6.73844 10.1432 6.45563 9.50506 6.37531C9.89944 5.98625 10.1448 5.44594 10.1448 4.84906C10.1448 3.66594 9.18225 2.70344 7.99913 2.70344C6.816 2.70344 5.8535 3.66594 5.8535 4.84906C5.8535 5.44594 6.09881 5.98625 6.49319 6.37531C5.85538 6.45563 5.26225 6.73812 4.79444 7.19281C4.42319 7.55312 4.15788 7.99563 4.01413 8.47969C3.52569 7.7325 3.24131 6.84031 3.24131 5.88281C3.24131 3.25938 5.37569 1.125 7.99913 1.125C10.6226 1.125 12.7569 3.25938 12.7569 5.88281C12.7569 6.84031 12.4726 7.7325 11.9841 8.47969C11.8407 7.99563 11.5754 7.55375 11.2044 7.19312Z" fill="#231F20"/>
</svg>
