<svg width="16" height="16" viewBox="0 0 16 16" fill="none" xmlns="http://www.w3.org/2000/svg">
<g clip-path="url(#clip0_4303_4047)">
<path d="M13.3327 5.33464H11.3327V2.66797H1.99935C1.26268 2.66797 0.666016 3.26464 0.666016 4.0013V11.3346H1.99935C1.99935 12.438 2.89602 13.3346 3.99935 13.3346C5.10268 13.3346 5.99935 12.438 5.99935 11.3346H9.99935C9.99935 12.438 10.896 13.3346 11.9993 13.3346C13.1027 13.3346 13.9993 12.438 13.9993 11.3346H15.3327V8.0013L13.3327 5.33464ZM3.99935 12.3346C3.44602 12.3346 2.99935 11.888 2.99935 11.3346C2.99935 10.7813 3.44602 10.3346 3.99935 10.3346C4.55268 10.3346 4.99935 10.7813 4.99935 11.3346C4.99935 11.888 4.55268 12.3346 3.99935 12.3346ZM12.9993 6.33464L14.3093 8.0013H11.3327V6.33464H12.9993ZM11.9993 12.3346C11.446 12.3346 10.9993 11.888 10.9993 11.3346C10.9993 10.7813 11.446 10.3346 11.9993 10.3346C12.5527 10.3346 12.9993 10.7813 12.9993 11.3346C12.9993 11.888 12.5527 12.3346 11.9993 12.3346Z" fill="black"/>
</g>
<defs>
<clipPath id="clip0_4303_4047">
<rect width="16" height="16" fill="white"/>
</clipPath>
</defs>
</svg>
