<svg width="29" height="30" viewBox="0 0 29 30" fill="none" xmlns="http://www.w3.org/2000/svg">
<path d="M18.7079 18.4532L20.3489 18.9907C19.5001 22.301 16.9538 25.0454 13.8416 26.2903C14.1811 23.0083 13.0494 21.9049 13.0494 21.9049L15.1148 18.6229L13.1343 18.7078C12.7099 19.3868 11.946 19.8395 11.1538 19.8395C9.9938 19.8395 9.2016 18.9059 9.34307 17.7742C9.45624 16.9537 10.0221 16.2464 10.7294 15.9068L11.0972 13.9546C10.1918 14.0112 9.25819 14.1527 8.32453 14.4356L2.60941 16.0483C3.91087 11.9742 7.81526 8.83367 12.1157 8.63562L12.5118 6.51367C6.40063 6.68343 0.883553 11.6629 0.0913576 17.8025C-0.700837 24.0551 3.74111 29.1195 9.9655 29.1195C16.0484 29.1195 21.6221 24.3098 22.6123 18.2834L18.7079 18.4532ZM6.82502 26.2903C3.99575 25.0454 2.15672 22.301 2.15672 18.9907L7.07965 17.5195L8.72063 21.9049C8.72063 21.9332 7.33428 23.0083 6.82502 26.2903Z" fill="#57BC73"/>
<path d="M28.3274 17.5755L12.823 17.2077C12.7099 16.8682 12.4835 16.6135 12.1723 16.4438L13.983 0.882812L11.0406 16.4438C10.4747 16.6701 10.0221 17.1794 9.93718 17.8018C9.82401 18.6223 10.4182 19.2731 11.2386 19.2731C11.8611 19.2731 12.4269 18.9053 12.7099 18.3677L28.3274 17.5755Z" fill="#4A5A72"/>
<path d="M16.3599 15.5095C15.9355 15.5095 15.5677 15.4812 15.2565 15.3964C14.9453 15.3115 14.6623 15.2266 14.4077 15.1134L14.6341 13.9251H14.7755C15.0302 14.1515 15.2848 14.293 15.6243 14.4061C15.9355 14.5193 16.275 14.5759 16.5863 14.5759C16.6711 14.5759 16.7843 14.5759 16.8975 14.5476C17.0389 14.5193 17.1521 14.5193 17.237 14.4627C17.3502 14.4344 17.435 14.3778 17.5199 14.293C17.6048 14.2364 17.6614 14.1232 17.6614 14.01C17.6897 13.8969 17.6614 13.7837 17.5482 13.6988C17.4633 13.6139 17.3219 13.5573 17.1804 13.529C17.0106 13.4725 16.8126 13.4442 16.5863 13.3876C16.3882 13.3593 16.1902 13.3027 15.9921 13.2461C15.596 13.1047 15.3131 12.9349 15.1716 12.7086C15.0302 12.4822 15.0019 12.1993 15.0584 11.8315C15.1433 11.3505 15.4545 10.9827 15.9355 10.6998C16.4448 10.4169 17.0106 10.2754 17.6897 10.2754C18.0292 10.2754 18.3404 10.3037 18.6799 10.3603C18.9911 10.4169 19.2741 10.5017 19.5287 10.6149L19.3023 11.7466H19.1892C19.0194 11.5769 18.7931 11.4637 18.5102 11.3505C18.2272 11.2373 17.9443 11.1808 17.6048 11.1808C17.4916 11.1808 17.3784 11.1808 17.2653 11.2091C17.1521 11.2373 17.0672 11.2656 16.9258 11.2939C16.8409 11.3222 16.756 11.3788 16.6711 11.4637C16.5863 11.5203 16.558 11.6051 16.5297 11.69C16.5014 11.8315 16.5297 11.9164 16.6145 12.0012C16.6994 12.0861 16.8975 12.1427 17.1521 12.1993C17.3219 12.2276 17.5199 12.2842 17.6897 12.3125C17.8594 12.3408 18.0292 12.3973 18.2272 12.4539C18.595 12.5671 18.8497 12.7369 18.9911 12.9632C19.1326 13.1612 19.1892 13.4442 19.1043 13.812C19.0194 14.3212 18.7082 14.7173 18.2272 15.0003C17.7463 15.3681 17.1238 15.5095 16.3599 15.5095Z" fill="#4A5A72"/>
<path d="M20.6322 15.4258L21.3961 11.3799H19.7268L19.8966 10.418H24.6214L24.4517 11.3799H22.7824L22.0185 15.4258H20.6322Z" fill="#4A5A72"/>
<path d="M23.6594 15.4258L26.517 10.418H28.0448L28.9784 15.4258H27.5355L27.3658 14.4072H25.6116L25.0741 15.4258H23.6594ZM27.2526 13.5019L26.998 11.8609L26.1209 13.5019H27.2526Z" fill="#4A5A72"/>
</svg>
